<svg xmlns="http://www.w3.org/2000/svg" viewBox="0 0 96.5 91.79"><defs><style>.cls-1{fill:#fff;}</style></defs><title>logo_line</title><g id="Layer_2" data-name="Layer 2"><g id="Layer_1-2" data-name="Layer 1"><path class="cls-1" d="M96.5,39.09C96.5,17.54,74.85,0,48.25,0S0,17.54,0,39.09C0,58.41,17.17,74.6,40.35,77.66c1.57.33,3.71,1,4.25,2.37a9.88,9.88,0,0,1,.16,4.36l-.69,4.12c-.21,1.22-1,4.76,4.18,2.6S76,74.77,86.16,63.14h0C93.15,55.49,96.5,47.72,96.5,39.09ZM29.36,51.91H19.78a2.52,2.52,0,0,1-2.53-2.52V30.25a2.53,2.53,0,1,1,5.05,0V46.86h7.06a2.53,2.53,0,1,1,0,5Zm9.92-2.52a2.53,2.53,0,0,1-5.06,0V30.25a2.53,2.53,0,0,1,5.06,0Zm23.08,0A2.54,2.54,0,0,1,57.8,50.9L48,37.54V49.39a2.53,2.53,0,0,1-5.06,0V30.25a2.52,2.52,0,0,1,2.53-2.53,2.55,2.55,0,0,1,2,1L57.3,42.09V30.25a2.53,2.53,0,0,1,5.06,0Zm15.51-12.1a2.53,2.53,0,1,1,0,5.05H70.81v4.52h7.06a2.53,2.53,0,1,1,0,5H68.28a2.53,2.53,0,0,1-2.53-2.52V39.82h0V30.25a2.53,2.53,0,0,1,2.53-2.53h9.59a2.53,2.53,0,1,1,0,5.05H70.81v4.52Z"/></g></g></svg>