<svg xmlns="http://www.w3.org/2000/svg" xmlns:xlink="http://www.w3.org/1999/xlink" width="14" height="14" viewBox="0 0 14 14">
  <defs>
    <path id="shape-a" d="M5.68266129,11.991129 C5.68266129,12.0475806 5.61774194,12.0927419 5.5358871,12.0927419 C5.44274194,12.1012097 5.37782258,12.0560484 5.37782258,11.991129 C5.37782258,11.9346774 5.44274194,11.8895161 5.52459677,11.8895161 C5.60927419,11.8810484 5.68266129,11.9262097 5.68266129,11.991129 Z M4.80483871,11.8641129 C4.78508065,11.9205645 4.84153226,11.9854839 4.92620968,12.0024194 C4.99959677,12.0306452 5.08427419,12.0024194 5.10120968,11.9459677 C5.11814516,11.8895161 5.06451613,11.8245968 4.97983871,11.7991935 C4.90645161,11.7794355 4.82459677,11.8076613 4.80483871,11.8641129 Z M6.05241935,11.816129 C5.97056452,11.8358871 5.9141129,11.8895161 5.92258065,11.9544355 C5.93104839,12.0108871 6.00443548,12.0475806 6.0891129,12.0278226 C6.17096774,12.0080645 6.22741935,11.9544355 6.21895161,11.8979839 C6.21048387,11.8443548 6.13427419,11.8076613 6.05241935,11.816129 Z M7.90967742,1 C3.99475806,1 1,3.97217742 1,7.88709677 C1,11.0173387 2.97016129,13.6959677 5.78427419,14.6387097 C6.14556452,14.703629 6.27258065,14.4806452 6.27258065,14.2971774 C6.27258065,14.1221774 6.2641129,13.1568548 6.2641129,12.5641129 C6.2641129,12.5641129 4.28830645,12.9875 3.8733871,11.7229839 C3.8733871,11.7229839 3.5516129,10.9016129 3.08870968,10.6899194 C3.08870968,10.6899194 2.44233871,10.2467742 3.13387097,10.2552419 C3.13387097,10.2552419 3.83669355,10.3116935 4.2233871,10.9834677 C4.84153226,12.0729839 5.87741935,11.7596774 6.28104839,11.5733871 C6.34596774,11.1217742 6.52943548,10.8084677 6.73266129,10.6221774 C5.15483871,10.4471774 3.56290323,10.2185484 3.56290323,7.50322581 C3.56290323,6.72701613 3.77741935,6.3375 4.22903226,5.84072581 C4.15564516,5.65725806 3.91572581,4.90080645 4.30241935,3.92419355 C4.89233871,3.74072581 6.25,4.68629032 6.25,4.68629032 C6.81451613,4.52822581 7.42137097,4.44637097 8.02258065,4.44637097 C8.62379032,4.44637097 9.23064516,4.52822581 9.79516129,4.68629032 C9.79516129,4.68629032 11.1528226,3.73790323 11.7427419,3.92419355 C12.1294355,4.90362903 11.8895161,5.65725806 11.816129,5.84072581 C12.2677419,6.34032258 12.5443548,6.72983871 12.5443548,7.50322581 C12.5443548,10.2270161 10.8818548,10.4443548 9.30403226,10.6221774 C9.56370968,10.8451613 9.78387097,11.2685484 9.78387097,11.9318548 C9.78387097,12.8830645 9.77540323,14.0600806 9.77540323,14.2915323 C9.77540323,14.475 9.90524194,14.6979839 10.2637097,14.6330645 C13.0862903,13.6959677 15,11.0173387 15,7.88709677 C15,3.97217742 11.8245968,1 7.90967742,1 Z M3.74354839,10.7350806 C3.70685484,10.7633065 3.71532258,10.8282258 3.76330645,10.8818548 C3.80846774,10.9270161 3.8733871,10.9467742 3.91008065,10.9100806 C3.94677419,10.8818548 3.93830645,10.8169355 3.89032258,10.7633065 C3.84516129,10.7181452 3.78024194,10.6983871 3.74354839,10.7350806 Z M3.43870968,10.5064516 C3.41895161,10.5431452 3.44717742,10.5883065 3.50362903,10.6165323 C3.54879032,10.6447581 3.60524194,10.6362903 3.625,10.5967742 C3.64475806,10.5600806 3.61653226,10.5149194 3.56008065,10.4866935 C3.50362903,10.4697581 3.45846774,10.4782258 3.43870968,10.5064516 Z M4.35322581,11.5112903 C4.30806452,11.5479839 4.325,11.6326613 4.38991935,11.6862903 C4.45483871,11.7512097 4.53669355,11.7596774 4.5733871,11.7145161 C4.61008065,11.6778226 4.59314516,11.5931452 4.53669355,11.5395161 C4.47459677,11.4745968 4.38991935,11.466129 4.35322581,11.5112903 Z M4.03145161,11.096371 C3.98629032,11.1245968 3.98629032,11.1979839 4.03145161,11.2629032 C4.0766129,11.3278226 4.15282258,11.3560484 4.18951613,11.3278226 C4.23467742,11.291129 4.23467742,11.2177419 4.18951613,11.1528226 C4.15,11.0879032 4.0766129,11.0596774 4.03145161,11.096371 Z"/>
  </defs>
  <use fill="#FFF" transform="translate(-1 -1)" xlink:href="#shape-a"/>
</svg>
