<svg id="Layer_1" xmlns="http://www.w3.org/2000/svg" viewBox="0 0 400 400"><style>.st0{fill:#FFFFFF}</style><g id="squares_1_"><path class="st0" d="M1640 397.8c-39.7 0-70.4-12.8-93.4-37.1-21.7-24.3-33.3-58.8-33.3-103.6 0-43.5 10.2-79.3 32-104.9 21.7-26.9 49.9-39.7 87-39.7 32 0 57.6 11.5 76.8 33.3 19.2 23 28.1 53.7 28.1 92.1v20.5h-197c0 37.1 9 66.5 26.9 85.7 16.6 20.5 42.2 29.4 74.2 29.4 15.3 0 29.4-1.3 40.9-3.8 11.5-2.6 26.9-6.4 44.8-14.1v24.3c-15.3 6.4-29.4 11.5-42.2 14.1-14.1 2.6-28.2 3.8-44.8 3.8zm-6.4-262.2c-26.9 0-47.3 9-64 25.6-15.3 17.9-25.6 42.2-28.1 75.5h168.9c0-32-6.4-56.3-20.5-74.2-12.8-18-32-26.9-56.3-26.9zm245.6-21.8c11.5 0 24.3 1.3 37.1 3.8l-5.1 24.3c-11.8-2.6-23.8-3.9-35.8-3.8-23 0-42.2 10.2-57.6 29.4-15.3 20.5-23 44.8-23 75.5v149.7h-25.6V119h21.7l2.6 49.9h1.3c11.5-20.5 23-34.5 35.8-42.2 15.4-9 30.7-12.9 48.6-12.9zM333.9 12.8h-183v245.6h245.6V76.7c.1-34.5-28.1-63.9-62.6-63.9zm-239.2 0H64c-34.5 0-64 28.1-64 64v30.7h94.7V12.8zM0 165h94.7v94.7H0V165zm301.9 245.6h30.7c34.5 0 64-28.1 64-64V316h-94.7v94.6zm-151-94.6h94.7v94.7h-94.7V316zM0 316v30.7c0 34.5 28.1 64 64 64h30.7V316H0z"/></g></svg>