<?xml version="1.0" standalone="no"?>
<!DOCTYPE svg PUBLIC "-//W3C//DTD SVG 20010904//EN"
 "http://www.w3.org/TR/2001/REC-SVG-20010904/DTD/svg10.dtd">
<svg version="1.0" xmlns="http://www.w3.org/2000/svg"
 width="260.000000pt" height="260.000000pt" viewBox="0 0 260.000000 260.000000"
 preserveAspectRatio="xMidYMid meet">
<g transform="translate(0.000000,260.000000) scale(0.100000,-0.100000)"
fill="#ea923e" stroke="none">
<path d="M987 2568 c-54 -11 -86 -30 -134 -78 -70 -71 -116 -173 -147 -323
-14 -68 -20 -109 -31 -242 -2 -16 -3 -33 -4 -36 0 -3 -13 -6 -28 -7 -53 -1
-168 -23 -258 -48 -232 -65 -365 -182 -365 -321 0 -64 14 -106 56 -166 61 -85
153 -159 287 -228 45 -23 80 -39 77 -36 -3 2 -42 32 -88 66 -367 271 -338 496
75 581 134 28 250 37 250 19 1 -55 16 -209 27 -284 l14 -90 -53 -70 c-364
-482 -437 -918 -174 -1034 453 -200 1542 772 1746 1558 27 104 33 246 14 311
-33 109 -127 180 -243 185 -114 4 -293 -61 -441 -160 -28 -19 -55 -35 -59 -35
-4 0 -20 24 -34 53 -75 147 -206 299 -301 350 -62 33 -133 46 -186 35z m172
-119 c72 -36 181 -139 264 -250 31 -42 57 -79 57 -84 0 -4 -15 -22 -33 -39
-18 -17 -26 -25 -17 -18 9 6 21 12 27 12 6 0 16 7 23 15 11 14 17 10 41 -27
34 -50 37 -47 10 8 l-20 39 96 46 c157 77 249 103 363 102 216 -1 256 -191
113 -528 -19 -44 -35 -81 -37 -82 -1 -2 -40 13 -87 32 -65 27 -283 101 -354
120 -6 1 -26 38 -44 81 -19 44 -38 84 -43 91 -6 8 -74 11 -229 11 l-221 -1
-21 -43 -21 -44 -111 1 -111 2 2 61 c9 208 49 373 109 452 62 82 139 95 244
43z m-159 -693 c52 -4 102 -9 110 -11 8 -2 40 -6 70 -10 107 -11 280 -45 435
-86 108 -28 365 -116 365 -125 0 -6 -63 -106 -111 -177 l-47 -67 -60 137 -60
138 -84 23 c-105 29 -345 78 -419 87 -31 3 -65 7 -75 9 -11 2 -56 7 -102 11
l-82 7 -16 -38 c-17 -40 -15 -70 12 -229 33 -190 121 -531 144 -560 6 -7 73
-10 177 -9 92 0 172 -2 177 -4 12 -7 -216 -204 -295 -255 l-26 -17 -46 103
c-99 226 -200 587 -232 827 -3 25 -8 56 -10 70 -9 52 -16 170 -12 177 6 9 46
9 187 -1z m333 -346 c20 -52 47 -124 61 -160 l24 -65 -127 0 c-84 0 -126 4
-126 11 0 22 119 324 125 316 4 -4 23 -50 43 -102z m-665 -344 c-43 -100 -83
-190 -88 -201 -5 -11 -32 -71 -59 -132 l-49 -113 61 -1 c302 -2 400 0 407 11
5 8 21 -13 42 -53 l35 -65 -96 -50 c-211 -110 -370 -127 -440 -47 -105 120
-30 439 192 818 l52 88 11 -37 c10 -35 6 -48 -68 -218z"/>
<path d="M2184 1498 c-24 -48 -25 -53 -9 -63 226 -136 334 -258 321 -363 -6
-50 -18 -72 -67 -120 -56 -55 -227 -129 -364 -156 l-30 -6 -55 126 c-30 70
-60 129 -65 130 -6 2 -43 -38 -82 -89 -40 -51 -107 -127 -148 -169 -41 -42
-75 -82 -75 -89 0 -29 25 -79 40 -79 18 -1 380 -1 427 0 l32 0 -30 70 c-16 39
-27 75 -24 80 3 6 21 10 39 10 28 0 72 7 161 24 44 9 151 49 166 62 8 8 20 14
25 14 18 0 93 79 114 121 25 49 30 122 12 185 -29 102 -158 237 -329 345 l-32
20 -27 -53z"/>
<path d="M1172 361 l-43 -27 31 -40 c272 -347 560 -342 649 11 7 28 15 56 17
63 2 6 0 12 -4 12 -5 0 -16 -24 -25 -53 -19 -59 -61 -130 -102 -171 -111 -111
-266 -53 -424 159 -25 33 -47 63 -50 66 -4 4 -25 -5 -49 -20z"/>
</g>
</svg>
