<svg width="122" height="115" viewBox="0 0 122 115" fill="none" xmlns="http://www.w3.org/2000/svg">
<path fill-rule="evenodd" clip-rule="evenodd" d="M31.8285 8.90533C31.8285 7.30644 33.1307 6.01028 34.737 6.01028H86.5099C88.1162 6.01028 89.4185 7.30644 89.4185 8.90533L89.301 53.1002C89.301 54.1354 88.7457 55.0919 87.8445 55.6087L61.9581 70.4547C61.0593 70.9702 59.9527 70.9702 59.0539 70.4548L33.1675 55.6087C32.2663 55.0919 31.711 54.1354 31.711 53.1002L31.8285 8.90533ZM34.737 2.53622C31.203 2.53622 28.3382 5.38777 28.3382 8.90533L28.2207 53.1002C28.2207 55.3777 29.4424 57.4818 31.425 58.6188L57.3114 73.4649C59.2888 74.5989 61.7233 74.5989 63.7006 73.4649L89.587 58.6188C91.5696 57.4818 92.7913 55.3777 92.7913 53.1002L92.9088 8.90533C92.9088 5.38777 90.0439 2.53622 86.5099 2.53622H34.737ZM58.2966 13.4271C59.7365 12.5997 61.5105 12.5997 62.9504 13.4271L79.9592 23.2015C81.3991 24.0289 82.2861 25.5581 82.2861 27.213V46.7618C82.2861 48.4166 81.3991 49.9458 79.9592 50.7733L62.9504 60.5476C61.5105 61.3751 59.7365 61.3751 58.2966 60.5476L41.2877 50.7733C39.8479 49.9458 38.9609 48.4166 38.9609 46.7618V27.213C38.9609 25.5581 39.8479 24.0289 41.2877 23.2015L58.2966 13.4271ZM48.1167 45.9621H52.3265V27.7233H48.1167V45.9621ZM57.1632 45.9621H65.4268C71.3776 45.9621 75.4574 42.3665 75.4574 36.8427C75.4574 31.3189 71.3776 27.7233 65.4268 27.7233H57.1632V45.9621ZM61.3729 42.4967V31.1887H65.2189C68.831 31.1887 71.1957 33.3513 71.1957 36.8427C71.1957 40.3341 68.831 42.4967 65.2189 42.4967H61.3729Z" fill="url(#logo-login)"/>
<path d="M12.8184 114.277C19.8527 114.277 25.0707 109.291 25.0707 102.533C25.0707 95.7756 19.8527 90.7895 12.8184 90.7895C5.71797 90.7895 0.5 95.8084 0.5 102.533C0.5 109.258 5.71797 114.277 12.8184 114.277ZM12.8184 111.357C7.63343 111.357 3.80251 107.618 3.80251 102.533C3.80251 97.4486 7.63343 93.709 12.8184 93.709C17.9373 93.709 21.7682 97.4486 21.7682 102.533C21.7682 107.618 17.9373 111.357 12.8184 111.357Z" fill="white"/>
<path d="M49.8344 114.014L44.3522 106.306C47.5887 105.157 49.4381 102.599 49.4381 99.056C49.4381 94.0698 45.8053 91.0519 39.7947 91.0519H30.7789V114.014H34.0814V107.027H39.7947C40.2901 107.027 40.7855 106.994 41.2478 106.962L46.2346 114.014H49.8344ZM39.6957 104.239H34.0814V93.9058H39.6957C43.9229 93.9058 46.1356 95.7756 46.1356 99.056C46.1356 102.336 43.9229 104.239 39.6957 104.239Z" fill="white"/>
<path d="M58.7367 111.16V103.747H70.3285V100.959H58.7367V93.9058H71.7486V91.0519H55.4342V114.014H72.211V111.16H58.7367Z" fill="white"/>
<path d="M87.7485 114.014H91.051V91.0519H87.7485V114.014Z" fill="white"/>
<path d="M98.6326 114.014H108.375C115.806 114.014 120.859 109.356 120.859 102.533C120.859 95.71 115.806 91.0519 108.375 91.0519H98.6326V114.014ZM101.935 111.16V93.9058H108.177C113.89 93.9058 117.556 97.383 117.556 102.533C117.556 107.683 113.89 111.16 108.177 111.16H101.935Z" fill="white"/>
<defs>
<linearGradient id="logo-login" x1="60.5647" y1="2.53622" x2="60.5647" y2="74.3154" gradientUnits="userSpaceOnUse">
<stop stop-color="#08B6E7"/>
<stop offset="1" stop-color="#00E7C7"/>
</linearGradient>
</defs>
</svg>
