<svg width="22" height="22" viewBox="0 0 22 22" fill="none" xmlns="http://www.w3.org/2000/svg">
<mask id="logo-fb" style="mask-type:alpha" maskUnits="userSpaceOnUse" x="0" y="0" width="22" height="22">
<path fill-rule="evenodd" clip-rule="evenodd" d="M0.334473 0.334167H21.6666V21.532H0.334473V0.334167Z" fill="white"/>
</mask>
<g mask="url(#logo-fb)">
<path fill-rule="evenodd" clip-rule="evenodd" d="M21.6663 10.9974C21.6663 5.10782 16.8907 0.333336 10.9997 0.333336C5.10863 0.333336 0.333008 5.10782 0.333008 10.9974C0.333008 16.3202 4.23365 20.732 9.33301 21.532V14.08H6.62467V10.9974H9.33301V8.64801C9.33301 5.97532 10.9255 4.499 13.362 4.499C14.529 4.499 15.7497 4.70729 15.7497 4.70729V7.33166H14.4046C13.0796 7.33166 12.6663 8.15369 12.6663 8.99703V10.9974H15.6247L15.1518 14.08H12.6663V21.532C17.7657 20.732 21.6663 16.3202 21.6663 10.9974" fill="#1877F2"/>
</g>
</svg>
