<svg width="24" height="24" viewBox="0 0 24 24" fill="none" xmlns="http://www.w3.org/2000/svg">
<path fill-rule="evenodd" clip-rule="evenodd" d="M22.24 12.2424C22.24 11.4861 22.1721 10.7588 22.0461 10.0606H12V14.1867H17.7406C17.4933 15.52 16.7418 16.6497 15.6121 17.4061V20.0824H19.0594C21.0764 18.2255 22.24 15.4909 22.24 12.2424Z" fill="#4285F4"/>
<path fill-rule="evenodd" clip-rule="evenodd" d="M12.0004 22.6667C14.8804 22.6667 17.2949 21.7115 19.0598 20.0824L15.6125 17.4061C14.6574 18.0461 13.4355 18.4242 12.0004 18.4242C9.2222 18.4242 6.87069 16.5479 6.0319 14.0267H2.46826V16.7903C4.22341 20.2764 7.83069 22.6667 12.0004 22.6667Z" fill="#34A853"/>
<path fill-rule="evenodd" clip-rule="evenodd" d="M6.03168 14.0267C5.81834 13.3867 5.69713 12.703 5.69713 12C5.69713 11.297 5.81834 10.6133 6.03168 9.97333V7.20969H2.46804C1.74562 8.64969 1.3335 10.2788 1.3335 12C1.3335 13.7212 1.74562 15.3503 2.46804 16.7903L6.03168 14.0267Z" fill="#FBBC05"/>
<path fill-rule="evenodd" clip-rule="evenodd" d="M12.0004 5.57576C13.5664 5.57576 14.9725 6.11394 16.078 7.17091L19.1374 4.11151C17.2901 2.3903 14.8755 1.33333 12.0004 1.33333C7.83069 1.33333 4.22341 3.72364 2.46826 7.2097L6.0319 9.97333C6.87069 7.45212 9.2222 5.57576 12.0004 5.57576Z" fill="#EA4335"/>
</svg>
