<svg width="24" height="24" viewBox="0 0 24 24" fill="none" xmlns="http://www.w3.org/2000/svg">
<path d="M18.2517 7.68944C18.5613 7.41425 19.0354 7.44214 19.3106 7.75173C19.5857 8.06131 19.5579 8.53537 19.2483 8.81056L12.4983 14.8106C12.2397 15.0404 11.8575 15.0636 11.5731 14.8666L1.82309 8.11664C1.62074 7.97656 1.5 7.74611 1.5 7.5C1.5 5.58579 2.58579 4.5 4.5 4.5H19.5C21.4142 4.5 22.5 5.58579 22.5 7.5V16.5C22.5 18.4116 21.413 19.5 19.5 19.5H4.5C2.58579 19.5 1.5 18.4142 1.5 16.5V11.5717C1.5 11.1575 1.83579 10.8217 2.25 10.8217C2.66421 10.8217 3 11.1575 3 11.5717V16.5C3 17.5858 3.41421 18 4.5 18H19.5C20.5841 18 21 17.5836 21 16.5V7.5C21 6.41421 20.5858 6 19.5 6H4.5C3.55102 6 3.11504 6.31641 3.02024 7.12105L12 13.2978L18.2517 7.68944Z" fill="url(#logo-email)"/>
<defs>
<linearGradient id="logo-email" x1="12" y1="4.5" x2="12" y2="19.5" gradientUnits="userSpaceOnUse">
<stop stop-color="#08B6E7"/>
<stop offset="1" stop-color="#00E7C7"/>
</linearGradient>
</defs>
</svg>
