<svg xmlns="http://www.w3.org/2000/svg" viewBox="0 0 262 309.97"><title>Asset 2</title><g id="Layer_2" data-name="Layer 2"><g id="Layer_1-2" data-name="Layer 1"><path d="M36.4,32.29h5.89V64.87H36.4Z"/><path d="M51.89,32.29H63.37c10.77,0,18.35,6.73,18.35,16.27S74.14,64.87,63.37,64.87H51.89ZM64,59.51c6.87,0,11.71-4.55,11.71-10.95S70.86,37.65,64,37.65H57.82V59.51Z"/><path d="M222.83,103.89,133.35,52.23a4.75,4.75,0,0,0-4.7,0L39.17,103.89A4.71,4.71,0,0,0,36.82,108V211.29a4.71,4.71,0,0,0,2.35,4.07L128.65,267a4.7,4.7,0,0,0,4.7,0l89.48-51.66a4.71,4.71,0,0,0,2.35-4.07V108A4.71,4.71,0,0,0,222.83,103.89Zm-79-34.76,70.29,40.58L190.7,150.24Zm41.45,90.49L131,253.56,76.72,159.62,131,65.69Zm-114-9.38L47.88,109.71l70.29-40.58Zm-5.42,9.38-19.67,34V125.59ZM71.3,169l46.87,81.11L47.88,209.54Zm119.4,0,23.42,40.53-70.29,40.58Zm5.42-9.39,19.67-34v68.07Z"/><path d="M131,310a4.72,4.72,0,0,1-2.36-.63L2.34,236A4.69,4.69,0,0,1,0,231.93V4.7A4.69,4.69,0,0,1,4.7,0H257.3A4.69,4.69,0,0,1,262,4.7V231.93a4.69,4.69,0,0,1-2.34,4.06l-126.3,73.35A4.72,4.72,0,0,1,131,310ZM9.39,229.23,131,299.85l121.61-70.62V9.39H9.39Z"/></g></g></svg>