<svg xmlns="http://www.w3.org/2000/svg" xmlns:xlink="http://www.w3.org/1999/xlink" viewBox="0 0 228.98 271.48"><defs><style>.cls-1{fill:url(#linear-gradient);}.cls-2{fill:url(#linear-gradient-2);}.cls-3{fill:url(#linear-gradient-3);}.cls-4{fill:url(#linear-gradient-4);}</style><linearGradient id="linear-gradient" x1="114.52" y1="39.54" x2="114.52" y2="240.57" gradientUnits="userSpaceOnUse"><stop offset="0" stop-color="#03afff"/><stop offset="1" stop-color="#00ffd4"/></linearGradient><linearGradient id="linear-gradient-2" x1="29.74" y1="26.96" x2="29.74" y2="56.39" xlink:href="#linear-gradient"/><linearGradient id="linear-gradient-3" x1="54.55" y1="26.96" x2="54.55" y2="56.39" xlink:href="#linear-gradient"/><linearGradient id="linear-gradient-4" x1="114.49" x2="114.49" y2="271.48" gradientUnits="userSpaceOnUse"><stop offset="0" stop-color="#08b6e7"/><stop offset="1" stop-color="#00e7c7"/></linearGradient></defs><title>Logo_OREID_2_1</title><g id="Layer_2" data-name="Layer 2"><g id="Layer_1-2" data-name="Layer 1"><g id="Layer_1-2-2" data-name="Layer 1-2"><path class="cls-1" d="M200.59,88.84l-84.8-48.95a1.77,1.77,0,0,0-.31-.15l-.12,0-.2-.07-.18,0-.15,0a2.58,2.58,0,0,0-.68,0l-.15,0-.18,0-.2.07a.34.34,0,0,0-.12,0,1.77,1.77,0,0,0-.31.15l-84.8,49a2.61,2.61,0,0,0-1.3,2.26V189a2.58,2.58,0,0,0,1.3,2.25l84.83,49,.3.15.12,0,.2.07.18,0a.45.45,0,0,0,.16,0,2.51,2.51,0,0,0,.67,0,.41.41,0,0,0,.16,0l.18,0,.2-.07.12,0,.31-.15,84.82-49a2.58,2.58,0,0,0,1.3-2.25V91.1A2.61,2.61,0,0,0,200.59,88.84Zm-79-39.59,74.18,42.83-24.72,42.77Zm46.46,90.81-53.57,92.71L60.92,140.06l53.57-92.7ZM57.92,134.85,33.2,92.08l74.18-42.83Zm-3,5.21L32.3,179.2V100.91Zm3,5.2,49.44,85.6L33.2,188Zm113.14,0L195.78,188,121.6,230.86Zm3-5.2,22.61-39.15V179.2Z"/><path class="cls-2" d="M27.09,27H32.4V56.39H27.09Z"/><path class="cls-3" d="M41.08,27H51.44C61.17,27,68,33,68,41.65S61.17,56.39,51.44,56.39H41.08ZM52,51.55c6.22,0,10.58-4.11,10.58-9.89S58.21,31.8,52,31.8H46.43V51.55Z"/><path class="cls-4" d="M114.49,271.48a2.56,2.56,0,0,1-1.3-.35L1.3,206.53A2.58,2.58,0,0,1,0,204.28V2.6A2.59,2.59,0,0,1,2.6,0H226.38A2.59,2.59,0,0,1,229,2.6V204.28a2.58,2.58,0,0,1-1.3,2.25l-111.89,64.6A2.59,2.59,0,0,1,114.49,271.48ZM5.2,202.78l109.29,63.08,109.29-63.09V5.2H5.2Z"/></g></g></g></svg>