<svg xmlns="http://www.w3.org/2000/svg" xmlns:xlink="http://www.w3.org/1999/xlink" width="16" height="16" viewBox="0 0 16 16">
  <defs>
    <path id="linkedin-a" d="M4.13367552,14.9968757 L1.23119839,14.9968757 L1.23119839,5.65208659 L4.13367552,5.65208659 L4.13367552,14.9968757 Z M2.6808748,4.37737112 C1.75295693,4.37737112 1,3.60879268 1,2.6808748 C1,1.75295693 1.75295693,1 2.6808748,1 C3.60879268,1 4.36174961,1.75295693 4.36174961,2.6808748 C4.36174961,3.60879268 3.60879268,4.37737112 2.6808748,4.37737112 Z M14.9968757,14.9968757 L12.1006472,14.9968757 L12.1006472,10.4478911 C12.1006472,9.36375809 12.0787771,7.97344343 10.591609,7.97344343 C9.08257085,7.97344343 8.85137246,9.15130551 8.85137246,10.3697835 L8.85137246,14.9968757 L5.95201964,14.9968757 L5.95201964,5.65208659 L8.73577326,5.65208659 L8.73577326,6.92680205 L8.7763892,6.92680205 C9.16380272,6.19259094 10.1104664,5.41776389 11.5226512,5.41776389 C14.4594956,5.41776389 15,7.35170721 15,9.86364651 L15,14.9968757 L14.9968757,14.9968757 Z"/>
  </defs>
  <use fill="#ffffff" xlink:href="#linkedin-a"/>
</svg>
