<svg xmlns="http://www.w3.org/2000/svg" xmlns:xlink="http://www.w3.org/1999/xlink" width="16" height="16" viewBox="0 0 16 16">
  <defs>
    <linearGradient id="mobile-a" x1="34.784%" x2="70.055%" y1="12.031%" y2="100.346%">
      <stop offset="0%" stop-color="#6836FD"/>
      <stop offset="100%" stop-color="#3A9FFF"/>
    </linearGradient>
    <path id="mobile-b" d="M12,4 L4,4 L4,11 L12,11 L12,4 Z M12,3 L12,2 C12,1.44771525 11.5522847,1 11,1 L5,1 C4.44771525,1 4,1.44771525 4,2 L4,3 L12,3 Z M12,12 L4,12 L4,14 C4,14.5522847 4.44771525,15 5,15 L11,15 C11.5522847,15 12,14.5522847 12,14 L12,12 Z M5,0 L11,0 C12.1045695,-2.22044605e-16 13,0.8954305 13,2 L13,14 C13,15.1045695 12.1045695,16 11,16 L5,16 C3.8954305,16 3,15.1045695 3,14 L3,2 C3,0.8954305 3.8954305,0 5,0 Z M7.5,14 C7.22385763,14 7,13.7761424 7,13.5 C7,13.2238576 7.22385763,13 7.5,13 L8.5,13 C8.77614237,13 9,13.2238576 9,13.5 C9,13.7761424 8.77614237,14 8.5,14 L7.5,14 Z"/>
  </defs>
  <use fill="url(#mobile-a)" xlink:href="#mobile-b"/>
</svg>
