<svg xmlns="http://www.w3.org/2000/svg" xmlns:xlink="http://www.w3.org/1999/xlink" width="16" height="16" viewBox="0 0 16 16">
  <defs>
    <path id="twitter-a" d="M13.5609475,4.83375326 C13.5698343,4.95811312 13.5698343,5.08250032 13.5698343,5.20686018 C13.5698343,9 10.6827878,13.3705874 5.40610706,13.3705874 C3.78046008,13.3705874 2.27031356,12.8997535 1,12.0825277 C1.23097356,12.1091606 1.45303302,12.1180473 1.69289333,12.1180473 C3.03424623,12.1180473 4.26904011,11.6650143 5.25508693,10.8921675 C3.99366013,10.8655073 2.93654663,10.0393673 2.57232645,8.9023004 C2.75000684,8.92893332 2.92765987,8.94670682 3.11422701,8.94670682 C3.37183348,8.94670682 3.6294673,8.91115981 3.86930027,8.84900722 C2.55458029,8.58248665 1.56850613,7.42767355 1.56850613,6.03300013 L1.56850613,5.99748046 C1.95047246,6.21068051 2.39467342,6.34392712 2.8654526,6.36167329 C2.09260583,5.84643299 1.58627963,4.96699987 1.58627963,3.9720663 C1.58627963,3.43907984 1.72838566,2.95049981 1.97713272,2.5240997 C3.38957965,4.26521979 5.51269341,5.40225938 7.8933863,5.52664659 C7.84897988,5.31344654 7.82231962,5.09138708 7.82231962,4.86930027 C7.82231962,3.28805972 9.10151993,2 10.6916199,2 C11.5177598,2 12.2639463,2.34644667 12.7880734,2.90609338 C13.436533,2.78173352 14.0583596,2.54187321 14.6091469,2.21320005 C14.3959195,2.87946047 13.9428865,3.43910718 13.3477201,3.79441326 C13.9251403,3.73226067 14.484787,3.57232645 15,3.35026699 C14.6092016,3.91877312 14.1205942,4.42509932 13.5609475,4.83375326 Z"/>
  </defs>
  <use fill="#FFF" xlink:href="#twitter-a"/>
</svg>
