<svg xmlns="http://www.w3.org/2000/svg" width="128" height="128"><linearGradient id="a" gradientUnits="userSpaceOnUse" x1="64" y1="127.003" x2="64" y2=".904"><stop offset="0" stop-color="#50c9ed"/><stop offset=".151" stop-color="#50c9ed"/><stop offset="1" stop-color="#e4ed54"/></linearGradient><path fill="url(#a)" d="M64 128C28.71 128 0 99.29 0 64S28.71 0 64 0s64 28.71 64 64-28.71 64-64 64zM64 2.583C30.142 2.583 2.597 30.135 2.597 64S30.142 125.417 64 125.417c33.857 0 61.402-27.552 61.402-61.417S97.858 2.583 64 2.583z"/><linearGradient id="b" gradientUnits="userSpaceOnUse" x1="63.996" y1="75.983" x2="63.996" y2="15.669"><stop offset="0" stop-color="#50c9ed"/><stop offset=".152" stop-color="#50c9ed"/><stop offset="1" stop-color="#e4ed54"/></linearGradient><path fill="url(#b)" d="M89.93 30.83L64.613 16.106a1.165 1.165 0 0 0-.295-.131 1.271 1.271 0 0 0-.975.131L38.064 30.83c-.401.232-.568.661-.568 1.124v29.449c0 .463.169.892.57 1.124l25.32 14.725c.201.117.407.176.633.176s.442-.059.643-.176l25.272-14.725c.401-.232.562-.661.562-1.124V31.954c0-.463-.165-.892-.566-1.124zM67.543 20.79L87.19 32.198l-6.55 11.408L67.543 20.79zm11.599 25.426L64 72.591 48.859 46.216 64 19.841l15.142 26.375zm-31.781-2.61l-6.549-11.408L60.458 20.79 47.361 43.606zm-1.944 2.61l-5.92 10.313V35.904l5.92 10.312zm1.943 2.611L61.255 73.03 40.413 60.928l6.947-12.101zm33.281 0l6.947 12.102L66.746 73.03l13.895-24.203zm1.935-2.611l5.92-10.313v20.625l-5.92-10.312z"/><linearGradient id="c" gradientUnits="userSpaceOnUse" x1="64" y1="106.418" x2="64" y2="83.918"><stop offset="0" stop-color="#50c9ed"/><stop offset=".152" stop-color="#50c9ed"/><stop offset="1" stop-color="#e4ed54"/></linearGradient><path fill="url(#c)" d="M60.748 94.366v-7.219c0-.346.279-.627.623-.627h5.947c3.462 0 4.691 2.282 4.691 4.236s-1.229 4.236-4.691 4.236h-5.947a.624.624 0 0 1-.623-.626m-17.582 9.101l-7.09-4.075a.629.629 0 0 1-.314-.542l-.035-8.213a.628.628 0 0 1 .309-.544l7.054-4.138a.62.62 0 0 1 .623-.002l7.09 4.076a.625.625 0 0 1 .314.541l.036 8.213a.627.627 0 0 1-.31.544l-7.054 4.138a.618.618 0 0 1-.623.002M41.672 83.51l-7.054 4.138a3.47 3.47 0 0 0-1.706 3.002l.036 8.213a3.47 3.47 0 0 0 1.732 2.987l7.09 4.075a3.426 3.426 0 0 0 3.438-.015l7.054-4.137a3.474 3.474 0 0 0 1.706-3.003l-.003-.62a.623.623 0 0 1 .623-.63h2.818c.344 0 .623.28.623.627v6.807c0 .133.529.437 1.401.437.792 0 1.318-.263 1.318-.437v-6.807c0-.346.279-.627.623-.627h4.853c.21 0 .406.107.521.283.031.047 3.092 4.744 4.473 6.799.462.688 1.215.832 1.765.832 1.026 0 1.886-.478 2.083-.738-1.315-1.893-3.254-4.521-4.192-5.794l-.421-.571c-.213-.29-.38-.519-.207-.865a.622.622 0 0 1 .557-.345h6.939a.623.623 0 0 1 .623.63l-.019 4.643c0 2.395.623 2.801 2.497 2.801h13.558c.068 0 .248 0 .431-.302.316-.523.343-1.47.057-2.027-.189-.368-.406-.368-.488-.368H81.985a.625.625 0 0 1-.623-.627v-4.766c0-.346.279-.627.623-.627h8.793a.847.847 0 0 0 .614-.271c.207-.217.245-.242.233-.585a.323.323 0 0 1 0-.044c.012-.343-.026-1.549-.233-1.764a.853.853 0 0 0-.614-.271h-8.793a.625.625 0 0 1-.623-.627v-5.369c0-.346.279-.627.623-.627H94.401c.082 0 .299 0 .488-.368.279-.542.263-1.353-.035-1.846-.197-.325-.492-.482-.903-.482H80.843c-1.874 0-2.497.405-2.497 2.803l.019 6.521a.626.626 0 0 1-.623.628h-3.18a.623.623 0 0 1-.536-.307.631.631 0 0 1-.011-.62c.473-.868.713-1.492.713-2.494 0-4.046-2.854-6.765-7.102-6.765h-7.374l-.042-.001a3.488 3.488 0 0 0-.232-.006c-.757 0-1.379.149-1.583.38-.395.445-.454 2.128-.369 3.125.002.018.002.036.002.053v6.823a.624.624 0 0 1-.623.626h-2.834a.625.625 0 0 1-.623-.624l-.017-3.811a3.47 3.47 0 0 0-1.732-2.987l-7.089-4.076a3.433 3.433 0 0 0-1.707-.456 3.459 3.459 0 0 0-1.731.474"/></svg>