<svg xmlns="http://www.w3.org/2000/svg" xmlns:xlink="http://www.w3.org/1999/xlink" width="16" height="16" viewBox="0 0 16 16">
  <defs>
    <linearGradient id="mail-a" x1="11.047%" x2="101.34%" y1="30.628%" y2="75.687%">
      <stop offset="0%" stop-color="#6836FD"/>
      <stop offset="100%" stop-color="#3A9FFF"/>
    </linearGradient>
    <path id="mail-b" d="M12.1678181,5.12629534 C12.3742095,4.94283633 12.6902457,4.9614267 12.8737047,5.16781808 C13.0571637,5.37420946 13.0385733,5.69024565 12.8321819,5.87370466 L8.33218192,9.87370466 C8.15981307,10.0269214 7.90501042,10.0423683 7.71539501,9.9110961 L1.21539501,5.4110961 C1.08049591,5.31770441 1,5.16407246 1,5 C1,3.72385763 1.72385763,3 3,3 L13,3 C14.2761424,3 15,3.72385763 15,5 L15,11 C15,12.2743969 14.2753258,13 13,13 L3,13 C1.72385763,13 1,12.2761424 1,11 L1,7.71444444 C1,7.43830207 1.22385763,7.21444444 1.5,7.21444444 C1.77614237,7.21444444 2,7.43830207 2,7.71444444 L2,11 C2,11.7238576 2.27614237,12 3,12 L13,12 C13.7227541,12 14,11.7223987 14,11 L14,5 C14,4.27614237 13.7238576,4 13,4 L3,4 C2.36734696,4 2.07669445,4.21093951 2.01349488,4.74736613 L8,8.86522849 L12.1678181,5.12629534 Z"/>
  </defs>
  <use fill="url(#mail-a)" xlink:href="#mail-b"/>
</svg>
