<svg width="120" height="35" viewBox="0 0 120 35" fill="none" xmlns="http://www.w3.org/2000/svg">
<path fill-rule="evenodd" clip-rule="evenodd" d="M36.8734 10.56C35.6499 10.5527 34.6512 11.5366 34.6401 12.76C34.6508 13.9849 35.6354 14.9784 36.8601 15C38.0836 14.9999 39.0764 14.0101 39.08 12.7866C39.0837 11.5632 38.0968 10.5674 36.8734 10.56ZM36.8093 11.1208C37.7481 11.092 38.5364 11.8217 38.5801 12.76C38.597 13.73 37.8299 14.5327 36.8601 14.56C35.9209 14.559 35.1561 13.8046 35.1422 12.8654C35.1283 11.9262 35.8704 11.1496 36.8093 11.1208Z" fill="white"/>
<path fill-rule="evenodd" clip-rule="evenodd" d="M42.4299 10.59H40.6699V14.96H41.1599V13.39H42.3999C42.7989 13.4288 43.1962 13.3019 43.4988 13.039C43.8014 12.7762 43.9826 12.4004 43.9999 12C43.9846 11.6027 43.8091 11.2285 43.5132 10.9628C43.2174 10.6972 42.8266 10.5627 42.4299 10.59ZM43.5299 11.98C43.5299 12.57 43.0499 12.91 42.3499 12.91H41.1599V11.06H42.3499C43.0499 11.06 43.5299 11.39 43.5299 11.98Z" fill="white"/>
<path fill-rule="evenodd" clip-rule="evenodd" d="M46 11.06V12.49H48.36V13H46V14.51H48.62V14.98H45.5V10.59H48.62V11.06H46Z" fill="white"/>
<path fill-rule="evenodd" clip-rule="evenodd" d="M50.3198 10.59H50.8098L53.4998 14.13V10.59H53.9998V14.94H53.4998L50.8098 11.4V14.94H50.3198V10.59Z" fill="white"/>
<path fill-rule="evenodd" clip-rule="evenodd" d="M61.7499 14.94L60.6199 13.33C61.2845 13.2329 61.7827 12.6714 61.7999 12C61.7851 11.5971 61.6054 11.2179 61.3028 10.9513C61.0003 10.6847 60.6016 10.5541 60.1999 10.59H58.4399V14.94H58.9299V13.37H60.0799L61.1799 14.94H61.7499ZM60.1199 12.91H58.9299V11.06H60.1199C60.8199 11.06 61.3099 11.39 61.3099 11.98C61.3099 12.57 60.8199 12.91 60.1199 12.91Z" fill="white"/>
<path fill-rule="evenodd" clip-rule="evenodd" d="M63.3102 10.59H63.8002V14.94H63.3102V10.59Z" fill="white"/>
<path fill-rule="evenodd" clip-rule="evenodd" d="M67.5598 12.65H69.2998V14.35C68.8365 14.7697 68.235 15.0046 67.6098 15.01C66.428 14.9311 65.5098 13.9495 65.5098 12.765C65.5098 11.5806 66.428 10.5989 67.6098 10.52C68.236 10.5206 68.839 10.7561 69.2998 11.18L68.9698 11.52C68.598 11.182 68.1124 10.9963 67.6098 11C66.6704 11.0702 65.9439 11.8529 65.9439 12.795C65.9439 13.7371 66.6704 14.5198 67.6098 14.59C68.0429 14.5822 68.4626 14.4388 68.8098 14.18V13.18H67.5598V12.65Z" fill="white"/>
<path fill-rule="evenodd" clip-rule="evenodd" d="M74.57 10.59V14.94H74.08V13H71.52V15H71V10.59H71.49V12.49H74.05V10.59H74.57Z" fill="white"/>
<path fill-rule="evenodd" clip-rule="evenodd" d="M77.5801 11.06H76.1201V10.59H79.5301V11.06H78.0701V14.94H77.5801V11.06Z" fill="white"/>
<path fill-rule="evenodd" clip-rule="evenodd" d="M80.8599 14.32L81.1699 13.93C81.5414 14.3252 82.0575 14.5526 82.5999 14.56C83.2699 14.56 83.5999 14.19 83.5999 13.8C83.5999 13.41 83.1899 13.15 82.4299 12.98C81.6699 12.81 80.9999 12.5 80.9999 11.75C81.0227 11.3913 81.1896 11.0571 81.4628 10.8235C81.7359 10.59 82.092 10.4769 82.4499 10.51C83.0192 10.5042 83.567 10.7276 83.9699 11.13L83.6699 11.52C83.3442 11.1977 82.9079 11.0118 82.4499 11C81.9868 10.9532 81.5723 11.2876 81.5199 11.75C81.5199 12.2 81.9499 12.36 82.6899 12.54C83.4299 12.72 84.1099 13.03 84.1099 13.79C84.1099 14.55 83.5899 15 82.5799 15C81.9381 15.0156 81.3174 14.7703 80.8599 14.32Z" fill="white"/>
<path fill-rule="evenodd" clip-rule="evenodd" d="M35.1401 20.54V22H37.5001V22.46H35.1401V24H37.7601V24.46H34.6401V20.07H37.7601V20.54H35.1401Z" fill="white"/>
<path fill-rule="evenodd" clip-rule="evenodd" d="M41.3701 22.24L43.0001 24.41H42.3901L41.0301 22.64L39.7001 24.41H39.1001L40.7701 22.24L39.1001 20.07H39.7101L41.0701 21.85L42.4301 20.07H43.0001L41.3701 22.24Z" fill="white"/>
<path fill-rule="evenodd" clip-rule="evenodd" d="M44.3599 22.24C44.3757 21.0173 45.3573 20.0268 46.5799 20C47.1688 20.0045 47.7311 20.246 48.1399 20.67L47.8099 21.01C47.4946 20.6631 47.0486 20.4637 46.5799 20.46C45.5913 20.46 44.7899 21.2614 44.7899 22.25C44.7899 23.2386 45.5913 24.04 46.5799 24.04C47.0486 24.0363 47.4946 23.8369 47.8099 23.49L48.1399 23.84C47.7269 24.2566 47.1664 24.4937 46.5799 24.5C45.3496 24.4729 44.365 23.4705 44.3599 22.24Z" fill="white"/>
<path fill-rule="evenodd" clip-rule="evenodd" d="M53.1301 20.07V24.41H52.6401V22.41H50.0801V24.41H49.5801V20.07H50.0801V22H52.6401V20.1L53.1301 20.07Z" fill="white"/>
<path fill-rule="evenodd" clip-rule="evenodd" d="M55.1298 24.43L55.5598 23.43H57.9998L58.4598 24.41H58.9998L56.9998 20.09H56.5098L54.5898 24.43H55.1298ZM56.7798 20.72L57.7798 23H55.7798L56.7798 20.72Z" fill="white"/>
<path fill-rule="evenodd" clip-rule="evenodd" d="M60.51 20.07H61L63.7 23.6V20.07H64.19V24.41H63.7L61 20.88V24.41H60.5L60.51 20.07Z" fill="white"/>
<path fill-rule="evenodd" clip-rule="evenodd" d="M68.0501 22.12H69.7901V23.83C69.3257 24.2481 68.7249 24.4828 68.1001 24.49C66.8575 24.49 65.8501 23.4826 65.8501 22.24C65.8501 20.9974 66.8575 19.99 68.1001 19.99C68.727 19.9962 69.3292 20.235 69.7901 20.66L69.4501 21C69.0887 20.6481 68.6045 20.4509 68.1001 20.45C67.1115 20.45 66.3101 21.2514 66.3101 22.24C66.3101 23.2286 67.1115 24.03 68.1001 24.03C68.5319 24.0245 68.9513 23.8847 69.3001 23.63V22.63H68.0501V22.12Z" fill="white"/>
<path fill-rule="evenodd" clip-rule="evenodd" d="M71.9998 20.54V22H74.3598V22.46H71.9998V24H74.6198V24.46H71.5098V20.07H74.6298V20.54H71.9998Z" fill="white"/>
<path fill-rule="evenodd" clip-rule="evenodd" d="M78.8302 20.07H79.3202V24.41H78.8302V20.07Z" fill="white"/>
<path fill-rule="evenodd" clip-rule="evenodd" d="M82.6399 20.07H81.1699V24.41H82.6399C83.4649 24.4893 84.2635 24.0939 84.7007 23.3897C85.1378 22.6856 85.1378 21.7944 84.7007 21.0903C84.2635 20.3861 83.4649 19.9907 82.6399 20.07ZM84.3599 22.28C84.3599 23.2299 83.5899 24 82.6399 24H81.6399V20.56H82.6399C83.5899 20.56 84.3599 21.3301 84.3599 22.28Z" fill="white"/>
<path fill-rule="evenodd" clip-rule="evenodd" d="M87.1502 20.54V22H89.5102V22.46H87.1502V24H89.7702V24.46H86.6602V20.07H89.7702V20.54H87.1502Z" fill="white"/>
<path fill-rule="evenodd" clip-rule="evenodd" d="M91.4702 20.07H92.0002L94.6902 23.6V20.07H95.1802V24.41H94.6902L92.0002 20.88V24.41H91.5002L91.4702 20.07Z" fill="white"/>
<path fill-rule="evenodd" clip-rule="evenodd" d="M98.25 20.54H96.79V20.07H100.2V20.54H98.74V24.41H98.25V20.54Z" fill="white"/>
<path fill-rule="evenodd" clip-rule="evenodd" d="M101.75 20.07H102.24V24.41H101.75V20.07Z" fill="white"/>
<path fill-rule="evenodd" clip-rule="evenodd" d="M105.24 20.54H103.78V20.07H107.2V20.54H105.73V24.41H105.24V20.54Z" fill="white"/>
<path fill-rule="evenodd" clip-rule="evenodd" d="M110.1 22.64L108.35 20.07H109L110.39 22.18L111.8 20.07H112.4L110.65 22.64V24.41H110.13L110.1 22.64Z" fill="white"/>
<path fill-rule="evenodd" clip-rule="evenodd" d="M8.997 8.80891C8.997 8.3046 9.40499 7.89577 9.90826 7.89577H26.1286C26.6319 7.89577 27.0399 8.3046 27.0399 8.80891L27.0031 22.7487C27.0031 23.0752 26.8291 23.3768 26.5467 23.5399L18.4366 28.2225C18.155 28.3851 17.8083 28.3851 17.5267 28.2225L9.41652 23.5399C9.13419 23.3768 8.9602 23.0752 8.9602 22.7487L8.997 8.80891ZM9.90826 6.8C8.80106 6.8 7.9035 7.69942 7.9035 8.80891L7.8667 22.7487C7.8667 23.467 8.24946 24.1307 8.87059 24.4893L16.9808 29.172C17.6003 29.5297 18.363 29.5297 18.9825 29.172L27.0927 24.4893C27.7138 24.1307 28.0966 23.467 28.0966 22.7487L28.1334 8.80891C28.1334 7.69942 27.2358 6.8 26.1286 6.8H9.90826ZM17.2894 10.2352C17.7405 9.97419 18.2963 9.97419 18.7474 10.2352L24.0763 13.3182C24.5274 13.5791 24.8053 14.0615 24.8053 14.5834V20.7494C24.8053 21.2714 24.5274 21.7537 24.0763 22.0147L18.7474 25.0977C18.2963 25.3587 17.7405 25.3587 17.2894 25.0977L11.9606 22.0147C11.5095 21.7537 11.2316 21.2714 11.2316 20.7494V14.5834C11.2316 14.0615 11.5095 13.5791 11.9606 13.3182L17.2894 10.2352ZM14.1001 20.4971H15.419V14.7444H14.1001V20.4971ZM16.9343 20.4971H19.5233C21.3877 20.4971 22.6659 19.363 22.6659 17.6208C22.6659 15.8785 21.3877 14.7444 19.5233 14.7444H16.9343V20.4971ZM18.2532 19.4041V15.8374H19.4582C20.5898 15.8374 21.3307 16.5195 21.3307 17.6208C21.3307 18.722 20.5898 19.4041 19.4582 19.4041H18.2532Z" fill="url(#oreid-footer)"/>
<path fill-rule="evenodd" clip-rule="evenodd" d="M114.4 0.5C116.664 0.5 118.5 2.33563 118.5 4.6L118.5 30.4C118.5 32.6644 116.664 34.5 114.4 34.5L4.6 34.5C2.33563 34.5 0.5 32.6644 0.5 30.4V4.6C0.5 2.33563 2.33563 0.5 4.6 0.5L114.4 0.5Z" stroke="#555555"/>
<defs>
<linearGradient id="oreid-footer" x1="18" y1="6.8" x2="18" y2="29.4402" gradientUnits="userSpaceOnUse">
<stop stop-color="#08B6E7"/>
<stop offset="1" stop-color="#00E7C7"/>
</linearGradient>
</defs>
</svg>
