<svg width="110" height="40" viewBox="0 0 110 40" fill="none" xmlns="http://www.w3.org/2000/svg">
<path d="M53.9452 24.0727C57.5733 24.0727 60.2646 21.5098 60.2646 18.0363C60.2646 14.5629 57.5733 12 53.9452 12C50.2831 12 47.5918 14.5798 47.5918 18.0363C47.5918 21.4929 50.2831 24.0727 53.9452 24.0727ZM53.9452 22.572C51.271 22.572 49.2951 20.6499 49.2951 18.0363C49.2951 15.4228 51.271 13.5007 53.9452 13.5007C56.5854 13.5007 58.5613 15.4228 58.5613 18.0363C58.5613 20.6499 56.5854 22.572 53.9452 22.572Z" fill="white"/>
<path d="M73.037 23.9378L70.2094 19.9754C71.8787 19.3853 72.8326 18.0701 72.8326 16.249C72.8326 13.6861 70.9589 12.1349 67.8588 12.1349H63.2087V23.9378H64.9121V20.3463H67.8588C68.1143 20.3463 68.3698 20.3295 68.6083 20.3126L71.1803 23.9378H73.037ZM67.8077 18.9131H64.9121V13.6018H67.8077C69.988 13.6018 71.1292 14.5629 71.1292 16.249C71.1292 17.9352 69.988 18.9131 67.8077 18.9131Z" fill="white"/>
<path d="M77.6285 22.4709V18.6602H83.6073V17.227H77.6285V13.6018H84.3397V12.1349H75.9252V23.9378H84.5782V22.4709H77.6285Z" fill="white"/>
<path d="M92.5919 23.9378H94.2953V12.1349H92.5919V23.9378Z" fill="white"/>
<path d="M98.2056 23.9378H103.23C107.063 23.9378 109.669 21.5435 109.669 18.0363C109.669 14.5292 107.063 12.1349 103.23 12.1349H98.2056V23.9378ZM99.909 22.4709V13.6018H103.128C106.075 13.6018 107.966 15.3891 107.966 18.0363C107.966 20.6836 106.075 22.4709 103.128 22.4709H99.909Z" fill="white"/>
<path fill-rule="evenodd" clip-rule="evenodd" d="M5.04589 4.68156C5.04589 3.84104 5.7328 3.15966 6.58014 3.15966H33.8899C34.7373 3.15966 35.4242 3.84104 35.4242 4.68156L35.3622 27.9145C35.3622 28.4587 35.0693 28.9614 34.5939 29.2331L20.939 37.0376C20.4649 37.3086 19.8812 37.3086 19.4071 37.0376L5.75222 29.2331C5.27686 28.9614 4.98393 28.4587 4.98393 27.9145L5.04589 4.68156ZM6.58014 1.33337C4.71598 1.33337 3.20478 2.83241 3.20478 4.68156L3.14282 27.9145C3.14282 29.1117 3.78727 30.2178 4.83305 30.8155L18.4879 38.62C19.531 39.2161 20.8152 39.2161 21.8582 38.62L35.5131 30.8155C36.5589 30.2178 37.2033 29.1117 37.2033 27.9145L37.2653 4.68156C37.2653 2.83241 35.7541 1.33337 33.8899 1.33337H6.58014ZM19.0076 7.05866C19.7671 6.62368 20.7029 6.62368 21.4624 7.05866L30.4345 12.197C31.194 12.6319 31.6619 13.4358 31.6619 14.3058V24.5824C31.6619 25.4523 31.194 26.2562 30.4345 26.6912L21.4624 31.8295C20.7029 32.2645 19.7671 32.2645 19.0076 31.8295L10.0356 26.6912C9.27604 26.2562 8.80816 25.4523 8.80816 24.5824V14.3058C8.80816 13.4358 9.27604 12.6319 10.0356 12.197L19.0076 7.05866ZM13.6378 24.162H15.8584V14.574H13.6378V24.162ZM18.4097 24.162H22.7687C25.9077 24.162 28.0598 22.2718 28.0598 19.368C28.0598 16.4642 25.9077 14.574 22.7687 14.574H18.4097V24.162ZM20.6303 22.3402V16.3957H22.6591C24.5644 16.3957 25.8118 17.5325 25.8118 19.368C25.8118 21.2034 24.5644 22.3402 22.6591 22.3402H20.6303Z" fill="url(#logo-ore)"/>
<defs>
<linearGradient id="logo-ore" x1="20.204" y1="1.33337" x2="20.204" y2="39.0671" gradientUnits="userSpaceOnUse">
<stop stop-color="#08B6E7"/>
<stop offset="1" stop-color="#00E7C7"/>
</linearGradient>
</defs>
</svg>
